<svg width="14" height="13" viewBox="0 0 14 13" fill="none" xmlns="http://www.w3.org/2000/svg">
<path d="M12.5 2.99999H9.9575C9.83946 2.301 9.47765 1.6664 8.93626 1.20877C8.39487 0.751144 7.70889 0.500061 7 0.500061C6.29111 0.500061 5.60513 0.751144 5.06374 1.20877C4.52235 1.6664 4.16054 2.301 4.0425 2.99999H1.5C1.23487 3.00029 0.980694 3.10574 0.793222 3.29321C0.60575 3.48069 0.500298 3.73487 0.5 3.99999V12C0.500298 12.2651 0.60575 12.5193 0.793222 12.7068C0.980694 12.8942 1.23487 12.9997 1.5 13H12.5C12.7651 12.9997 13.0193 12.8942 13.2068 12.7068C13.3942 12.5193 13.4997 12.2651 13.5 12V3.99999C13.4997 3.73487 13.3942 3.48069 13.2068 3.29321C13.0193 3.10574 12.7651 3.00029 12.5 2.99999ZM7 1.49999C7.44327 1.50057 7.87383 1.64812 8.22428 1.91955C8.57472 2.19098 8.82527 2.57096 8.93669 2.99999H5.06331C5.17473 2.57096 5.42528 2.19098 5.77572 1.91955C6.12617 1.64812 6.55673 1.50057 7 1.49999Z" fill="#434343"/>
</svg>
